# xmcd
#
# Track frame offsets: 
#        182
#        22607
#        47492
#        75030
#        138022
#
# Disc length: 2199 seconds
#
# Revision: 4
# Processed by: cddbd v1.5.2PL0 Copyright (c) Steve Scherf et al.
# Submitted via: ExactAudioCopy v0.99pb4
#
DISCID=20089505
DTITLE=John Coltrane - Lush Life (DCC GZS-1108)
DYEAR=1957
DGENRE=Blues
TTITLE0=Like Someone in Love
TTITLE1=I Love You
TTITLE2=Trane's Slo Blues
TTITLE3=Lush Life
TTITLE4=I Hear a Rhapsody
EXTD=DCC GZS-1108
EXTT0=
EXTT1=
EXTT2=
EXTT3=
EXTT4=
PLAYORDER=
